<svg width="250" height="370" viewBox="0 0 250 370" fill="none" xmlns="http://www.w3.org/2000/svg">
<rect width="250" height="370" fill="#D1D5DB"/>
<path d="M157.367 193.467L149.033 185C148.723 184.688 148.355 184.44 147.949 184.27C147.542 184.101 147.107 184.014 146.667 184.014C146.227 184.014 145.791 184.101 145.385 184.27C144.979 184.44 144.61 184.688 144.3 185L135 194.467L125.7 185C125.39 184.688 125.021 184.44 124.615 184.27C124.209 184.101 123.773 184.014 123.333 184.014C122.893 184.014 122.458 184.101 122.051 184.27C121.645 184.44 121.277 184.688 120.967 185L113.333 192.8L105.7 185C105.39 184.688 105.021 184.44 104.615 184.27C104.209 184.101 103.773 184.014 103.333 184.014C102.893 184.014 102.458 184.101 102.051 184.27C101.645 184.44 101.277 184.688 100.967 185L92.6333 193.333C92.3299 193.65 92.092 194.024 91.9333 194.433C91.7625 194.834 91.6719 195.264 91.6667 195.7V208.333C91.6667 210.985 92.7202 213.529 94.5956 215.404C96.471 217.28 99.0145 218.333 101.667 218.333H148.333C150.986 218.333 153.529 217.28 155.404 215.404C157.28 213.529 158.333 210.985 158.333 208.333V195.833C158.328 195.398 158.237 194.967 158.067 194.567C157.908 194.157 157.67 193.784 157.367 193.467ZM151.667 208.333C151.667 209.217 151.315 210.065 150.69 210.69C150.065 211.315 149.217 211.667 148.333 211.667H101.667C100.783 211.667 99.9348 211.315 99.3097 210.69C98.6845 210.065 98.3333 209.217 98.3333 208.333V197.2L103.333 192.2L110.967 199.867C111.277 200.179 111.645 200.427 112.051 200.596C112.458 200.766 112.893 200.853 113.333 200.853C113.773 200.853 114.209 200.766 114.615 200.596C115.021 200.427 115.39 200.179 115.7 199.867L123.333 192.2L132.633 201.667C132.943 201.979 133.312 202.227 133.718 202.396C134.124 202.566 134.56 202.653 135 202.653C135.44 202.653 135.876 202.566 136.282 202.396C136.688 202.227 137.057 201.979 137.367 201.667L146.667 192.333L151.667 197.333V208.333ZM148.333 151.667H101.667C99.0145 151.667 96.471 152.72 94.5956 154.596C92.7202 156.471 91.6667 159.014 91.6667 161.667V179.2C91.6319 179.499 91.6319 179.801 91.6667 180.1C91.6667 180.1 91.6667 180.333 91.6667 180.433C91.8754 180.955 92.2124 181.415 92.6464 181.771C93.0804 182.127 93.5973 182.368 94.1493 182.471C94.7012 182.574 95.2703 182.536 95.8036 182.361C96.3369 182.185 96.8172 181.877 97.2 181.467L103.333 175.533L110.967 183.2C111.277 183.512 111.645 183.76 112.051 183.93C112.458 184.099 112.893 184.186 113.333 184.186C113.773 184.186 114.209 184.099 114.615 183.93C115.021 183.76 115.39 183.512 115.7 183.2L123.333 175.533L132.633 185C132.943 185.312 133.312 185.56 133.718 185.73C134.124 185.899 134.56 185.986 135 185.986C135.44 185.986 135.876 185.899 136.282 185.73C136.688 185.56 137.057 185.312 137.367 185L146.667 175.667L152.567 181.6C152.949 182.011 153.43 182.318 153.963 182.494C154.496 182.669 155.065 182.707 155.617 182.604C156.169 182.501 156.686 182.26 157.12 181.904C157.554 181.548 157.891 181.088 158.1 180.567C158.116 180.467 158.116 180.366 158.1 180.267C158.217 179.969 158.285 179.653 158.3 179.333V161.667C158.3 159.02 157.251 156.482 155.383 154.607C153.515 152.733 150.98 151.675 148.333 151.667ZM151.667 171.133L149.033 168.333C148.723 168.021 148.355 167.773 147.949 167.604C147.542 167.434 147.107 167.347 146.667 167.347C146.227 167.347 145.791 167.434 145.385 167.604C144.979 167.773 144.61 168.021 144.3 168.333L135 177.8L125.7 168.333C125.39 168.021 125.021 167.773 124.615 167.604C124.209 167.434 123.773 167.347 123.333 167.347C122.893 167.347 122.458 167.434 122.051 167.604C121.645 167.773 121.277 168.021 120.967 168.333L113.333 176.133L105.7 168.333C105.39 168.021 105.021 167.773 104.615 167.604C104.209 167.434 103.773 167.347 103.333 167.347C102.893 167.347 102.458 167.434 102.051 167.604C101.645 167.773 101.277 168.021 100.967 168.333L98.3333 171.133V161.667C98.3333 160.783 98.6845 159.935 99.3097 159.31C99.9348 158.685 100.783 158.333 101.667 158.333H148.333C149.217 158.333 150.065 158.685 150.69 159.31C151.315 159.935 151.667 160.783 151.667 161.667V171.133Z" fill="#9CA3AF"/>
</svg>
